<?xml version="1.0" standalone="no"?>
<!DOCTYPE svg PUBLIC "-//W3C//DTD SVG 20010904//EN"
 "http://www.w3.org/TR/2001/REC-SVG-20010904/DTD/svg10.dtd">
<svg version="1.0" xmlns="http://www.w3.org/2000/svg"
 width="580.000000pt" height="387.000000pt" viewBox="0 0 580.000000 387.000000"
 preserveAspectRatio="xMidYMid meet">

<g transform="translate(0.000000,387.000000) scale(0.100000,-0.100000)"
fill="#000000" stroke="none">
<path d="M3076 2775 c-8 -8 -18 -15 -23 -15 -5 0 -16 -8 -25 -19 -8 -10 -20
-20 -26 -22 -13 -5 -20 -45 -7 -42 6 1 19 5 30 9 37 14 -3 -24 -66 -63 -33
-20 -59 -37 -59 -38 0 -2 33 11 73 27 73 31 121 38 140 19 20 -20 28 -11 13
11 -22 31 -21 33 19 35 34 3 46 -9 25 -22 -8 -5 -7 -12 2 -22 10 -12 9 -17 -5
-24 -12 -7 -17 -23 -17 -54 0 -35 -5 -48 -26 -64 l-26 -20 36 -15 c41 -17 41
-17 21 -56 -14 -28 -55 -43 -55 -21 0 5 -13 14 -30 20 -26 9 -30 8 -30 -9 0
-10 5 -20 11 -22 6 -2 -1 -24 -17 -53 -15 -27 -30 -43 -32 -37 -2 6 4 22 12
34 20 28 21 44 1 28 -8 -7 -22 -10 -30 -6 -11 4 -15 -1 -15 -19 0 -14 -4 -25
-10 -25 -5 0 -10 11 -10 25 0 16 -4 23 -13 19 -20 -7 -69 36 -64 56 4 15 1 16
-24 6 -16 -6 -29 -14 -29 -18 0 -4 -11 -8 -24 -8 -15 0 -26 -7 -28 -17 -3 -12
-9 -5 -17 21 -12 35 -12 40 8 59 26 26 41 14 16 -13 -16 -17 -16 -20 -3 -15 9
4 19 13 22 22 4 10 14 13 29 9 12 -3 29 -1 37 4 8 5 18 6 24 3 14 -9 135 -9
129 0 -2 4 -11 7 -19 7 -8 0 -14 5 -14 10 0 16 -131 10 -137 -6 -2 -7 -11 -10
-19 -7 -8 3 -12 8 -10 11 3 3 -2 11 -11 17 -15 11 -15 15 -4 29 11 13 11 16
-2 16 -8 0 -17 -7 -20 -14 -3 -8 -21 -23 -39 -32 -18 -9 -46 -27 -61 -40 -37
-31 -93 -32 -138 -1 -34 23 -45 55 -24 70 6 5 1 15 -14 27 -34 29 -173 29
-216 0 l-30 -20 35 -1 c33 -2 34 -2 5 -6 -49 -6 -123 -33 -135 -49 -11 -12 8
-14 139 -14 149 0 152 0 213 -31 36 -18 70 -29 85 -26 37 7 37 -11 1 -33 -21
-13 -43 -19 -60 -16 -16 3 -33 0 -41 -9 -12 -12 -18 -9 -37 18 -21 29 -21 30
-2 14 15 -14 25 -16 38 -9 15 8 12 13 -25 32 -38 19 -61 22 -192 23 -119 2
-149 5 -149 16 0 11 -3 11 -17 0 -13 -11 -17 -11 -20 -1 -6 17 -23 15 -23 -2
0 -8 14 -19 30 -25 34 -11 37 -22 14 -42 -45 -37 -66 -150 -44 -230 9 -34 91
-129 111 -129 5 0 9 -4 9 -10 0 -6 -58 -10 -155 -10 -85 0 -155 -3 -155 -6 0
-3 25 -48 57 -101 31 -53 56 -101 56 -107 0 -6 -26 -54 -57 -106 -30 -52 -56
-98 -56 -102 0 -5 82 -8 183 -8 l183 0 11 -43 c23 -86 54 -113 289 -248 121
-70 234 -134 252 -143 46 -24 119 -30 168 -14 22 7 145 74 274 148 250 145
279 169 303 257 l11 43 183 0 c101 0 183 3 183 8 0 4 -27 52 -59 106 -51 84
-58 103 -49 120 6 12 33 57 59 102 27 45 49 84 49 88 0 3 -70 6 -155 6 -97 0
-155 4 -155 10 0 6 4 10 10 10 20 0 84 66 101 105 37 80 18 202 -40 262 -11
12 -21 27 -21 32 0 6 -19 20 -42 32 -45 23 -129 30 -184 16 -30 -8 -33 -6 -64
49 -30 54 -32 63 -26 120 7 69 8 68 -70 80 -27 4 -51 10 -54 14 -3 3 -26 21
-52 39 -27 17 -48 36 -48 41 0 15 -27 12 -44 -5z m-646 -245 c0 -6 -29 -10
-67 -9 -47 0 -62 3 -48 9 28 12 115 12 115 0z m836 -46 c-3 -7 0 -11 7 -9 12
5 67 -64 67 -83 0 -5 -7 -15 -16 -23 -23 -19 -66 -108 -58 -121 4 -6 8 -35 10
-63 3 -67 32 -123 91 -174 l48 -41 -520 1 c-490 0 -519 1 -495 17 38 25 90 79
90 92 0 8 -16 11 -47 10 -27 -2 -72 -2 -101 -1 l-53 1 3 33 c3 32 3 32 66 35
105 5 69 21 -55 24 -126 3 -119 0 -114 53 1 12 20 15 104 15 65 0 107 4 115
12 8 8 15 8 24 1 7 -6 47 -13 88 -17 80 -7 312 -7 319 0 3 2 -8 17 -22 32 -25
26 -35 52 -21 52 11 0 75 -54 85 -71 14 -27 -9 -59 -43 -59 -38 0 -58 -10 -51
-26 4 -11 -5 -14 -36 -14 -31 0 -41 4 -41 16 0 15 -13 16 -127 10 -120 -7
-142 -10 -132 -20 2 -2 104 -7 227 -11 l222 -8 1 29 c0 26 17 80 18 61 1 -4
10 -3 21 3 36 19 81 -26 53 -54 -11 -10 -12 -36 -2 -36 15 0 79 104 69 110 -6
4 -2 14 10 25 11 10 20 14 20 9 1 -5 8 4 16 19 20 36 37 24 30 -22 -3 -20 -5
-40 -6 -46 0 -5 -4 -4 -9 4 -6 10 -19 -5 -46 -53 -20 -36 -44 -70 -54 -75 -9
-5 -102 -12 -206 -16 -105 -4 -192 -9 -195 -12 -3 -2 6 -13 19 -24 26 -21 86
-26 95 -6 5 10 7 10 12 0 7 -15 34 -17 34 -3 0 15 227 13 232 -2 7 -20 118 11
118 32 0 10 6 23 13 29 14 11 16 45 4 57 -4 4 0 15 9 25 11 12 15 28 11 46 -5
27 27 203 43 233 10 19 64 24 56 4z m-379 -146 c43 -64 45 -68 35 -68 -5 0
-14 10 -20 23 -6 12 -21 37 -32 55 -12 17 -20 32 -17 32 3 0 18 -19 34 -42z
m-589 10 c-3 -7 -18 -15 -34 -16 -16 -2 -37 -11 -47 -20 -14 -12 -20 -13 -30
-3 -9 10 -8 15 8 27 11 8 25 12 32 10 7 -3 13 -1 13 4 0 6 14 10 31 10 20 0
29 -4 27 -12z m46 0 c20 -8 23 -14 15 -24 -14 -17 -49 -1 -49 21 0 18 2 18 34
3z m1184 0 c-7 -20 -58 -23 -58 -4 0 11 10 16 31 16 20 0 29 -4 27 -12z m52
-3 c22 -12 23 -14 8 -20 -24 -9 -48 1 -48 20 0 18 8 18 40 0z m-1170 -40 c22
-26 -4 -43 -30 -20 -20 18 -18 35 4 35 8 0 19 -7 26 -15z m1230 0 c10 -13 11
-18 1 -28 -10 -9 -15 -8 -27 7 -8 11 -14 23 -14 28 0 14 27 9 40 -7z m-1460
-4 c0 -21 -13 -41 -26 -41 -17 0 -18 22 -2 38 14 14 28 16 28 3z m1233 3 c9
-9 -16 -44 -30 -44 -16 0 -17 22 -1 38 13 13 22 15 31 6z m-1083 -29 c11 -13
4 -15 -51 -15 -58 1 -62 2 -45 15 26 19 80 19 96 0z m1229 0 c85 -43 50 -175
-46 -175 -71 0 -120 91 -78 146 14 19 15 18 35 -6 11 -14 20 -33 20 -43 0 -22
27 -34 43 -18 8 8 5 17 -10 33 -27 30 -44 64 -36 72 11 10 43 7 72 -9z m111
-24 c5 -11 10 -24 10 -30 0 -17 -27 -13 -34 5 -16 41 4 62 24 25z m-1520 -18
c0 -25 -16 -47 -28 -40 -14 9 -2 57 14 57 8 0 14 -8 14 -17z m1228 -10 c-4
-39 -28 -42 -28 -4 0 21 5 31 16 31 11 0 14 -8 12 -27z m-262 -30 c-11 -11
-19 6 -11 24 8 17 8 17 12 0 3 -10 2 -21 -1 -24z m562 -20 c-4 -39 -28 -42
-28 -4 0 21 5 31 16 31 11 0 14 -8 12 -27z m-1530 -20 c-4 -34 -20 -32 -30 2
-5 20 -3 25 14 25 15 0 19 -6 16 -27z m1234 2 c4 -19 1 -25 -13 -25 -14 0 -19
7 -19 25 0 15 6 25 14 25 7 0 16 -11 18 -25z m-1102 -20 c0 -29 -4 -35 -20
-35 -25 0 -74 46 -65 60 3 6 24 10 46 10 38 0 39 -1 39 -35z m1380 -18 c0 -14
-20 -37 -32 -37 -10 0 -11 34 -1 43 11 12 33 8 33 -6z m-1482 -9 c16 -16 15
-38 -2 -38 -18 0 -39 27 -31 40 8 13 18 13 33 -2z m1230 0 c16 -16 15 -38 -2
-38 -18 0 -39 27 -31 40 8 13 18 13 33 -2z m-1028 -42 c0 -13 -20 -26 -41 -26
-14 0 -11 28 4 33 23 10 37 7 37 -7z m1235 5 c6 -10 -25 -31 -44 -31 -15 0
-14 27 2 33 20 9 35 8 42 -2z m-1381 -7 c18 -7 22 -34 5 -34 -19 0 -50 21 -44
31 7 11 17 11 39 3z m1230 0 c18 -7 22 -34 5 -34 -19 0 -50 21 -44 31 7 11 17
11 39 3z m-1147 -21 c5 -15 -36 -28 -49 -15 -6 6 -7 15 -3 22 9 14 47 9 52 -7z
m1233 3 c0 -19 -39 -31 -53 -17 -9 9 -8 14 3 21 22 14 50 12 50 -4z m350 -91
c0 -2 -23 -43 -50 -89 -28 -47 -53 -92 -56 -101 -4 -8 18 -55 50 -109 31 -51
56 -96 56 -100 0 -3 -450 -6 -1000 -6 -550 0 -1000 3 -1000 6 0 3 25 47 55 98
30 50 55 97 55 103 0 6 -25 52 -55 101 -30 50 -55 93 -55 96 0 3 450 6 1000 6
550 0 1000 -2 1000 -5z m-1595 -459 c7 -21 26 -51 41 -67 15 -16 134 -90 263
-164 299 -171 287 -169 472 -64 372 214 390 227 414 295 7 21 18 40 24 42 38
13 -28 -118 -77 -151 -71 -49 -436 -257 -480 -274 -74 -28 -118 -12 -367 132
-121 71 -234 139 -251 152 -42 31 -95 152 -63 141 6 -2 17 -21 24 -42z m1135
27 c0 -36 -49 -73 -235 -181 -262 -151 -271 -155 -319 -149 -59 7 -491 259
-511 298 -8 15 -15 33 -15 39 0 7 170 10 540 10 508 0 540 -1 540 -17z"/>
<path d="M2928 2153 c6 -2 18 -2 25 0 6 3 1 5 -13 5 -14 0 -19 -2 -12 -5z"/>
<path d="M1940 1934 c0 -3 23 -43 50 -90 28 -47 50 -86 50 -88 0 -3 -22 -42
-49 -88 l-49 -83 479 -3 c263 -1 695 -1 959 0 l480 3 -50 83 c-28 46 -50 86
-50 89 0 3 22 42 50 88 27 46 50 86 50 89 0 3 -432 6 -960 6 -528 0 -960 -3
-960 -6z m216 -89 c2 -11 8 -33 12 -50 9 -29 9 -28 16 23 l8 52 39 0 39 0 0
-115 0 -115 -29 0 c-28 0 -28 1 -25 48 4 47 4 47 -7 12 -6 -19 -13 -41 -15
-47 -2 -7 -12 -13 -23 -13 -16 0 -22 11 -31 58 -18 83 -20 85 -16 10 5 -66 4
-68 -19 -68 -23 0 -24 1 -27 115 l-3 116 39 -3 c30 -2 40 -8 42 -23z m268 19
c13 -5 16 -24 16 -109 0 -113 -1 -115 -65 -115 -64 0 -65 2 -65 114 0 57 3
106 7 109 8 9 86 9 107 1z m174 -23 c3 -20 0 -23 -17 -18 -20 5 -21 2 -21 -89
l0 -94 -27 0 -28 0 3 96 c4 94 3 96 -17 89 -18 -5 -21 -2 -21 20 0 26 1 26 63
23 57 -3 62 -5 65 -27z m146 23 c13 -5 16 -24 16 -109 0 -116 0 -115 -76 -115
-38 0 -46 4 -54 25 -10 27 -8 175 4 193 7 12 83 16 110 6z m170 0 c12 -5 16
-20 16 -59 0 -29 -5 -55 -10 -57 -7 -2 -5 -19 5 -47 20 -58 20 -61 -14 -61
-26 0 -30 4 -36 38 -11 65 -25 73 -25 15 0 -51 -1 -53 -27 -53 l-28 0 0 115 0
115 52 0 c28 0 58 -3 67 -6z m170 0 c24 -9 21 -71 -3 -84 -28 -14 -29 -14 -33
23 -6 61 -23 32 -26 -45 -2 -65 0 -78 13 -78 9 0 15 9 15 23 0 25 17 47 37 47
9 0 13 -16 13 -50 0 -44 -3 -50 -23 -56 -13 -3 -41 -4 -63 -2 l-39 3 -3 99
c-1 55 0 106 2 113 6 13 80 18 110 7z m107 -29 l6 -30 8 33 c6 27 12 32 36 32
16 0 29 -1 29 -2 0 -2 -10 -28 -22 -58 -20 -53 -23 -67 -26 -137 -2 -28 -6
-33 -27 -33 -23 0 -25 3 -25 53 0 32 -10 75 -25 112 -14 33 -25 61 -25 63 0 2
15 2 32 0 27 -2 34 -8 39 -33z m220 25 c29 -16 25 -64 -6 -78 -34 -16 -33 -17
-37 21 -6 61 -23 32 -26 -45 -3 -66 -1 -78 12 -78 10 0 16 9 16 25 0 23 24 45
49 45 17 0 13 -77 -5 -94 -9 -9 -32 -16 -54 -16 -70 0 -70 1 -70 114 0 57 3
106 7 109 10 11 92 8 114 -3z m101 -89 l-1 -93 35 7 c33 6 35 4 32 -17 -3 -21
-9 -23 -60 -26 l-58 -3 0 116 0 116 27 -3 27 -3 -2 -94z m215 83 c9 -24 -10
-36 -40 -25 -26 10 -27 9 -27 -24 0 -33 2 -35 25 -29 22 5 25 3 25 -20 0 -23
-3 -26 -25 -20 -23 6 -25 3 -25 -26 0 -32 1 -32 36 -26 33 7 35 6 32 -16 -3
-21 -9 -23 -65 -26 l-62 -3 2 116 1 115 58 0 c44 0 60 -4 65 -16z"/>
<path d="M2211 1754 c0 -11 3 -14 6 -6 3 7 2 16 -1 19 -3 4 -6 -2 -5 -13z"/>
<path d="M2367 1833 c-2 -5 -5 -32 -6 -62 -1 -30 -2 -57 -3 -60 -2 -20 4 -31
17 -31 12 0 15 15 15 74 0 66 -10 101 -23 79z"/>
<path d="M2672 1755 c0 -65 2 -76 17 -73 13 3 16 16 16 73 0 57 -3 70 -16 73
-15 3 -17 -8 -17 -73z"/>
<path d="M2850 1799 c0 -38 24 -35 28 4 2 19 -1 27 -12 27 -11 0 -16 -10 -16
-31z"/>
<path d="M2886 1455 c-5 -21 -12 -25 -44 -25 l-37 -1 28 -17 c25 -15 27 -21
22 -51 l-7 -34 26 17 c24 15 28 15 52 -1 l26 -17 -6 31 c-6 26 -3 34 20 52
l27 21 -36 0 c-31 0 -38 4 -43 25 -3 14 -10 25 -14 25 -4 0 -11 -11 -14 -25z"/>
<path d="M2690 1415 c0 -12 13 -15 63 -15 57 1 60 2 43 15 -27 20 -106 20
-106 0z"/>
<path d="M3004 1415 c-17 -13 -14 -14 42 -15 46 0 63 4 68 15 4 12 -4 15 -42
15 -27 0 -57 -7 -68 -15z"/>
<path d="M2737 1384 c-14 -15 6 -24 54 -24 36 0 49 4 47 13 -5 13 -89 23 -101
11z"/>
<path d="M2960 1375 c0 -13 10 -15 50 -13 67 4 69 22 3 26 -43 2 -53 0 -53
-13z"/>
<path d="M3000 2600 c-8 -5 -10 -10 -5 -10 6 0 17 5 25 10 8 5 11 10 5 10 -5
0 -17 -5 -25 -10z"/>
<path d="M3105 2602 c5 -9 0 -11 -18 -7 -13 4 -51 -1 -83 -11 -32 -10 -65 -19
-72 -20 -8 -1 -32 -15 -55 -31 l-42 -28 135 -3 c118 -2 136 0 147 15 18 23 16
55 -3 79 -8 10 -13 13 -9 6z"/>
<path d="M3030 2463 c19 -3 39 -9 45 -14 5 -5 17 -9 26 -9 9 0 19 -7 23 -15 7
-20 26 -19 26 0 0 9 -12 18 -30 22 -17 3 -33 10 -36 14 -3 5 -24 8 -47 7 -41
-1 -41 -1 -7 -5z"/>
</g>
</svg>
